HIERARCHY
ROOT joint_Root
{
	OFFSET 0.0 0.0 0.0
	CHANNELS 6 Xposition Yposition Zposition Zrotation Xrotation Yrotation 
	JOINT Hips
	{
		OFFSET -17.1583 93.1646 452.98
		CHANNELS 6 Xposition Yposition Zposition Zrotation Xrotation Yrotation 
		JOINT Spine
		{
			OFFSET 15.7357 0.0 0.0
			CHANNELS 6 Xposition Yposition Zposition Zrotation Xrotation Yrotation 
			JOINT Chest
			{
				OFFSET 8.98455 -0.406207 0.0
				CHANNELS 6 Xposition Yposition Zposition Zrotation Xrotation Yrotation 
				JOINT Neck
				{
					OFFSET 16.3773 0.0 0.0
					CHANNELS 6 Xposition Yposition Zposition Zrotation Xrotation Yrotation 
					JOINT Head
					{
						OFFSET 6.45672 0.0 0.0
						CHANNELS 6 Xposition Yposition Zposition Zrotation Xrotation Yrotation 
						End Site
						{
							OFFSET 0.0 0.0 0.0
						}
					}
				}
				JOINT Shoulder_L
				{
					OFFSET 12.9942 -0.242716 4.98039
					CHANNELS 6 Xposition Yposition Zposition Zrotation Xrotation Yrotation 
					JOINT UpperArm_L
					{
						OFFSET 5.34809 0.0 0.0
						CHANNELS 6 Xposition Yposition Zposition Zrotation Xrotation Yrotation 
						JOINT LowerArm_L
						{
							OFFSET 24.3286 1.87007e-05 0.0
							CHANNELS 6 Xposition Yposition Zposition Zrotation Xrotation Yrotation 
							JOINT Hand_L
							{
								OFFSET 22.2916 0.0 0.0
								CHANNELS 6 Xposition Yposition Zposition Zrotation Xrotation Yrotation 
								End Site
								{
									OFFSET 0.0 0.0 0.0
								}
							}
						}
					}
				}
				JOINT Shoulder_R
				{
					OFFSET 12.9945 -0.242716 -4.98039
					CHANNELS 6 Xposition Yposition Zposition Zrotation Xrotation Yrotation 
					JOINT UpperArm_R
					{
						OFFSET -5.34813 0.0 0.0
						CHANNELS 6 Xposition Yposition Zposition Zrotation Xrotation Yrotation 
						JOINT LowerArm_R
						{
							OFFSET -24.3289 0.000322201 0.0
							CHANNELS 6 Xposition Yposition Zposition Zrotation Xrotation Yrotation 
							JOINT Hand_R
							{
								OFFSET -22.2915 -0.000108084 0.0
								CHANNELS 6 Xposition Yposition Zposition Zrotation Xrotation Yrotation 
								End Site
								{
									OFFSET 0.0 0.0 0.0
								}
							}
						}
					}
				}
			}
		}
		JOINT UpperLeg_L
		{
			OFFSET -2.19248 -6.46944 0.0
			CHANNELS 6 Xposition Yposition Zposition Zrotation Xrotation Yrotation 
			JOINT LowerLeg_L
			{
				OFFSET 39.0811 0.0 -1.23785e-05
				CHANNELS 6 Xposition Yposition Zposition Zrotation Xrotation Yrotation 
				JOINT Foot_L
				{
					OFFSET 40.9854 0.0 -1.26872e-05
					CHANNELS 6 Xposition Yposition Zposition Zrotation Xrotation Yrotation 
					JOINT Toes_L
					{
						OFFSET 11.7543 0.0 0.0
						CHANNELS 6 Xposition Yposition Zposition Zrotation Xrotation Yrotation 
						End Site
						{
							OFFSET 0.0 0.0 0.0
						}
					}
				}
			}
		}
		JOINT UpperLeg_R
		{
			OFFSET -2.19251 6.46944 0.0
			CHANNELS 6 Xposition Yposition Zposition Zrotation Xrotation Yrotation 
			JOINT LowerLeg_R
			{
				OFFSET -39.0811 -0.00228153 -0.0401928
				CHANNELS 6 Xposition Yposition Zposition Zrotation Xrotation Yrotation 
				JOINT Foot_R
				{
					OFFSET -40.9854 0.0 0.0
					CHANNELS 6 Xposition Yposition Zposition Zrotation Xrotation Yrotation 
					JOINT Toes_R
					{
						OFFSET -11.7543 0.0 0.0
						CHANNELS 6 Xposition Yposition Zposition Zrotation Xrotation Yrotation 
						End Site
						{
							OFFSET 0.0 0.0 0.0
						}
					}
				}
			}
		}
	}
}
MOTION
Frames:	6
Frame Time:	0.0333333
0.000000 0.000000 0.000000 0.000000 0.000000 -0.000000 0.033196 89.151000 -11.615400 88.095900 -8.685640 1.001860 15.735700 0.000005 -0.000001 139.143000 85.212300 -137.811000 8.984550 -0.406207 -0.000000 -1.586910 7.131970 2.765340 16.377300 -0.000001 -0.000001 -2.564750 2.878160 -1.315750 6.456720 -0.000001 -0.000000 6.364810 0.826920 -0.230044 12.994200 -0.242716 4.980390 -92.741400 6.883280 -68.221400 5.348090 -0.000007 -0.000001 -42.190500 -20.981300 27.938400 24.328600 0.000019 0.000005 0.881454 14.272600 -3.571080 22.291600 -0.000001 0.000005 24.676500 4.359850 18.665000 12.994500 -0.242716 -4.980390 89.301900 2.755650 -75.778400 -5.348130 -0.000001 -0.000004 -54.668700 8.628620 -22.610500 -24.328900 0.000322 -0.000009 -4.938510 -1.579070 -72.306500 -22.291500 -0.000108 -0.000004 8.957370 5.455670 -4.841360 -2.192480 -6.469440 -0.000000 -177.093000 -8.765900 -23.327900 39.081100 -0.000007 -0.000012 -0.003037 0.032619 5.318320 40.985400 -0.000006 -0.000013 -6.922400 7.866740 -63.490600 11.754300 -0.000000 0.000003 0.001863 0.041817 -14.880500 -2.192510 6.469440 -0.000001 177.032000 4.835510 -166.945000 -39.081100 -0.002282 -0.040193 -0.045707 0.118214 22.523900 -40.985400 0.000008 0.000006 -5.319150 16.035500 -70.937300 -11.754300 -0.000006 -0.000006 -0.003944 -0.050860 -18.641900
0.000000 0.000000 0.000000 0.000000 0.000000 -0.000000 0.787217 88.367600 -6.417930 89.513400 -7.803240 -1.221440 15.735700 0.000005 -0.000001 145.867000 85.922900 -145.226000 8.984550 -0.406207 -0.000000 -3.238060 6.684890 1.472120 16.377300 -0.000001 -0.000001 -3.034100 2.604920 -1.150670 6.456720 -0.000001 -0.000000 6.533800 0.762953 0.436209 12.994200 -0.242716 4.980390 -92.917200 7.538340 -68.771800 5.348090 -0.000007 -0.000001 -41.946500 -20.691500 26.929200 24.328600 0.000019 0.000005 0.800851 13.827600 -3.347310 22.291600 -0.000001 0.000005 34.591800 3.863640 26.082200 12.994500 -0.242716 -4.980390 89.081100 3.624650 -75.765000 -5.348130 -0.000001 -0.000004 -55.533900 6.967590 -20.535600 -24.328900 0.000322 -0.000009 -4.700690 -1.573620 -71.527700 -22.291500 -0.000108 -0.000004 10.197600 5.469120 -5.334620 -2.192480 -6.469440 -0.000000 -179.759000 -5.894300 -31.465400 39.081100 -0.000007 -0.000012 -0.019207 0.057817 18.376400 40.985400 -0.000006 -0.000013 -2.098600 8.446990 -58.352000 11.754300 -0.000000 0.000003 0.001519 0.031518 -15.298200 -2.192510 6.469440 -0.000001 174.918000 4.395930 -168.353000 -39.081100 -0.002282 -0.040193 -0.022498 0.053245 25.860100 -40.985400 0.000008 0.000006 -6.375640 15.703500 -68.320900 -11.754300 -0.000006 -0.000006 -0.029041 -0.213034 -25.298300
0.000000 0.000000 0.000000 0.000000 0.000000 -0.000000 1.606200 87.868500 -0.905215 91.256500 -7.002950 -3.461630 15.735700 0.000005 -0.000001 158.420000 86.643200 -158.622000 8.984550 -0.406207 -0.000000 -5.302950 6.258790 -0.115026 16.377300 -0.000001 -0.000001 -3.070500 2.296770 -0.897465 6.456720 -0.000001 -0.000000 6.861090 0.636018 1.298590 12.994200 -0.242716 4.980390 -92.957300 7.711790 -68.944300 5.348090 -0.000007 -0.000001 -42.595700 -20.950500 25.408300 24.328600 0.000019 0.000005 0.688663 10.720900 -3.697810 22.291600 -0.000001 0.000005 35.205500 3.887290 25.778300 12.994500 -0.242716 -4.980390 88.867100 4.324850 -75.306500 -5.348130 -0.000001 -0.000004 -57.530900 6.473940 -16.749700 -24.328900 0.000322 -0.000009 -5.236800 -2.059470 -68.586200 -22.291500 -0.000108 -0.000004 11.357900 5.476970 -5.631640 -2.192480 -6.469440 -0.000000 177.808000 -3.221770 -36.446300 39.081100 -0.000007 -0.000012 0.081618 -0.159442 27.107700 40.985400 -0.000006 -0.000013 0.509733 6.260000 -54.794400 11.754300 -0.000000 0.000003 0.002259 0.058438 -14.206500 -2.192510 6.469440 -0.000001 173.389000 2.430820 -171.157000 -39.081100 -0.002282 -0.040193 0.032595 -0.049291 30.723400 -40.985400 0.000008 0.000006 -7.110830 13.258400 -62.447400 -11.754300 -0.000006 -0.000006 -0.095624 -0.433568 -34.647800
0.000000 0.000000 0.000000 0.000000 0.000000 -0.000000 2.216630 87.635100 5.008370 92.914700 -6.458350 -2.416620 15.735700 0.000005 -0.000001 153.283000 86.684300 -154.200000 8.984550 -0.406207 -0.000000 -4.749560 6.018050 -1.588320 16.377300 -0.000001 -0.000001 -3.434020 1.945360 -0.840012 6.456720 -0.000001 -0.000000 6.689070 0.578763 1.934410 12.994200 -0.242716 4.980390 -92.955700 7.818780 -69.216300 5.348090 -0.000007 -0.000001 -45.260800 -21.142100 22.265900 24.328600 0.000019 0.000005 0.590143 7.806530 -4.337560 22.291600 -0.000001 0.000005 26.343100 4.230510 20.752100 12.994500 -0.242716 -4.980390 88.891100 4.141190 -74.995500 -5.348130 -0.000001 -0.000004 -61.378100 5.631340 -12.333200 -24.328900 0.000322 -0.000009 -5.815750 -3.009180 -62.739400 -22.291500 -0.000108 -0.000004 11.843600 5.488980 -6.095070 -2.192480 -6.469440 -0.000000 175.875000 -1.112820 -35.797700 39.081100 -0.000007 -0.000012 0.208025 -0.303511 34.426700 40.985400 -0.000006 -0.000013 1.923270 5.648230 -57.980300 11.754300 -0.000000 0.000003 0.002346 0.103778 -12.368300 -2.192510 6.469440 -0.000001 172.204000 0.530867 -172.870000 -39.081100 -0.002282 -0.040193 0.100570 -0.123111 38.317200 -40.985400 0.000008 0.000006 -6.038080 10.116200 -52.534200 -11.754300 -0.000006 -0.000006 -0.141758 -0.538198 -39.285000
0.000000 0.000000 0.000000 0.000000 0.000000 -0.000000 2.754840 87.575100 10.542500 94.096000 -6.700550 -0.272829 15.735700 0.000005 -0.000001 140.675000 86.342600 -142.052000 8.984550 -0.406207 -0.000000 -3.066510 5.786100 -2.600860 16.377300 -0.000001 -0.000001 -3.560920 1.959290 -0.707452 6.456720 -0.000001 -0.000000 5.861680 0.915329 2.038560 12.994200 -0.242716 4.980390 -92.985300 7.968660 -69.385000 5.348090 -0.000007 -0.000001 -50.008500 -20.789700 17.539900 24.328600 0.000019 0.000005 0.847714 8.765560 -5.541610 22.291600 -0.000001 0.000005 14.208700 4.549430 15.680000 12.994500 -0.242716 -4.980390 88.825900 4.243380 -74.518100 -5.348130 -0.000001 -0.000004 -63.974400 6.432590 -9.711180 -24.328900 0.000322 -0.000009 -6.959250 -5.297950 -52.907300 -22.291500 -0.000108 -0.000004 11.686200 5.476570 -5.615310 -2.192480 -6.469440 -0.000000 174.139000 -0.627991 -32.465800 39.081100 -0.000007 -0.000012 0.375356 -0.455661 39.480900 40.985400 -0.000006 -0.000013 3.045700 4.821940 -63.691400 11.754300 -0.000000 0.000003 0.001710 0.130666 -11.278000 -2.192510 6.469440 -0.000001 171.237000 -1.376210 -176.913000 -39.081100 -0.002282 -0.040193 0.183097 -0.156534 48.964500 -40.985400 0.000008 0.000006 -5.904280 7.062560 -39.490100 -11.754300 -0.000006 -0.000006 -0.030659 -0.220467 -25.606700
0.000000 0.000000 0.000000 0.000000 0.000000 -0.000000 3.245270 87.549700 15.309600 95.066200 -8.058470 1.571010 15.735700 0.000005 -0.000001 131.479000 86.115900 -133.157000 8.984550 -0.406207 -0.000000 -1.869110 5.284950 -3.271430 16.377300 -0.000001 -0.000001 -2.945130 2.773040 -0.945054 6.456720 -0.000001 -0.000000 5.456920 2.036660 2.236290 12.994200 -0.242716 4.980390 -93.279800 8.489840 -68.786000 5.348090 -0.000007 -0.000001 -55.042400 -17.671500 11.983400 24.328600 0.000019 0.000005 1.906680 14.161600 -7.741970 22.291600 -0.000001 0.000005 1.845430 4.789120 11.432800 12.994500 -0.242716 -4.980390 88.568100 5.132180 -74.387900 -5.348130 -0.000001 -0.000004 -64.302200 9.756850 -8.666790 -24.328900 0.000322 -0.000009 -4.765820 -5.784400 -39.549100 -22.291500 -0.000108 -0.000004 8.335020 5.398800 -2.829380 -2.192480 -6.469440 -0.000000 172.531000 -1.660230 -28.708300 39.081100 -0.000007 -0.000012 0.515619 -0.567926 42.237300 40.985400 -0.000006 -0.000013 3.972630 4.054120 -68.296500 11.754300 -0.000000 0.000003 0.001362 0.140201 -10.891200 -2.192510 6.469440 -0.000001 169.979000 -2.579270 176.257000 -39.081100 -0.002282 -0.040193 0.290867 -0.178279 58.211100 -40.985400 0.000008 0.000006 -6.117580 2.135680 -22.616800 -11.754300 -0.000006 -0.000006 0.001647 0.132605 -11.195800
